<?xml version="1.0" standalone="no"?><!DOCTYPE svg PUBLIC "-//W3C//DTD SVG 1.1//EN" "http://www.w3.org/Graphics/SVG/1.1/DTD/svg11.dtd"><svg t="1559468725374" class="icon" style="" viewBox="0 0 1024 1024" version="1.1" xmlns="http://www.w3.org/2000/svg" p-id="27911" xmlns:xlink="http://www.w3.org/1999/xlink" width="26" height="26"><defs><style type="text/css"></style></defs><path d="M947.2 624.64h-87.04V506.88h-327.68c20.48 0 35.84-10.24 51.2-20.48l174.08-174.08c30.72-30.72 30.72-81.92 0-112.64L583.68 25.6c-30.72-30.72-81.92-30.72-112.64 0L296.96 199.68c-30.72 30.72-30.72 81.92 0 112.64l174.08 174.08c15.36 15.36 30.72 20.48 51.2 20.48H189.44v117.76H102.4c-40.96 0-76.8 35.84-76.8 76.8v245.76c0 40.96 35.84 76.8 76.8 76.8h245.76c40.96 0 76.8-35.84 76.8-76.8v-245.76c0-40.96-35.84-76.8-76.8-76.8H256v-51.2h532.48v51.2h-87.04c-40.96 0-76.8 35.84-76.8 76.8v245.76c0 40.96 35.84 76.8 76.8 76.8h245.76c40.96 0 76.8-35.84 76.8-76.8v-245.76c0-46.08-35.84-76.8-76.8-76.8z" p-id="27912"></path></svg>