<?xml version="1.0" standalone="no"?><!DOCTYPE svg PUBLIC "-//W3C//DTD SVG 1.1//EN" "http://www.w3.org/Graphics/SVG/1.1/DTD/svg11.dtd"><svg t="1559468677336" class="icon" style="" viewBox="0 0 1025 1024" version="1.1" xmlns="http://www.w3.org/2000/svg" p-id="26829" xmlns:xlink="http://www.w3.org/1999/xlink" width="26.025390625" height="26"><defs><style type="text/css"></style></defs><path d="M505.278 16.464C227.055 16.464 1.51 242.01 1.51 520.232 1.51 798.455 227.055 1024 505.278 1024c278.223 0 503.769-225.545 503.769-503.768 0-278.223-225.546-503.768-503.769-503.768z m63.61 620.141l-114.39 114.264c-49.383 49.28-130.164 49.28-179.541 0l-2.141-2.138c-49.38-49.274-49.38-129.976 0-179.321l80.064-79.854c-0.406 23.515 3.877 47.173 12.847 69.331l-51.758 51.687c-26.812 26.708-26.812 70.288 0 97.061l2.14 2.136c26.814 26.742 70.416 26.742 97.233 0l114.422-114.233c26.814-26.777 26.814-70.348 0-97.093l-2.139-2.137c-4.183-4.176-8.8-7.634-13.699-10.519l41.837-41.812c4.52 3.428 8.907 7.127 13.016 11.234h0.003l2.105 2.104c49.314 49.277 49.314 129.978 0 179.29zM735.82 469.873l-80.033 79.889c0.407-23.52-3.844-47.14-12.817-69.302l51.724-51.686c26.817-26.741 26.817-70.315 0-97.094l-2.139-2.103c-26.813-26.778-70.417-26.778-97.161 0L480.934 443.81c-26.816 26.776-26.816 70.348 0 97.126l2.107 2.072a67.383 67.383 0 0 0 13.695 10.523l-41.866 41.845c-4.487-3.464-8.87-7.162-12.981-11.272l-2.111-2.07c-49.378-49.343-49.378-130.013 0-179.321l114.394-114.268c49.378-49.31 130.158-49.31 179.536 0l2.143 2.138v0.003c49.383 49.306 49.383 129.974-0.031 179.287z" fill="#32374a" p-id="26830"></path></svg>