<?xml version="1.0" standalone="no"?><!DOCTYPE svg PUBLIC "-//W3C//DTD SVG 1.1//EN" "http://www.w3.org/Graphics/SVG/1.1/DTD/svg11.dtd"><svg t="1559468656366" class="icon" style="" viewBox="0 0 1024 1024" version="1.1" xmlns="http://www.w3.org/2000/svg" p-id="26613" xmlns:xlink="http://www.w3.org/1999/xlink" width="26" height="26"><defs><style type="text/css"></style></defs><path d="M716.9 829.9h-411c-14.2 0-25.7 11.5-25.7 25.7s11.5 25.7 25.7 25.7h410.9c14.2 0 25.7-11.5 25.7-25.7 0.1-14.3-11.4-25.7-25.6-25.7z m0 0M896.7 149.4H126.1c-14.1 0-25.7 11.6-25.7 25.7v496.5c0 14.1 11.6 25.7 25.7 25.7h770.5c14.1 0 25.7-11.6 25.7-25.7V175c0.1-14.1-11.5-25.6-25.6-25.6zM591.1 434.8l-159.5 79.8c-12.6 6.3-23-0.1-23-14.2V346.3c0-14.1 10.3-20.5 23-14.2l159.5 79.8c12.7 6.3 12.7 16.6 0 22.9z m0 0" p-id="26614"></path></svg>