<?xml version="1.0" standalone="no"?><!DOCTYPE svg PUBLIC "-//W3C//DTD SVG 1.1//EN" "http://www.w3.org/Graphics/SVG/1.1/DTD/svg11.dtd"><svg t="1559468715969" class="icon" style="" viewBox="0 0 1024 1024" version="1.1" xmlns="http://www.w3.org/2000/svg" p-id="27694" xmlns:xlink="http://www.w3.org/1999/xlink" width="26" height="26"><defs><style type="text/css"></style></defs><path d="M725.102493 426.292989c5.339612-19.467377 11.304464-47.727001 18.212803-84.464717h-50.554396v11.933797c0 13.814634-0.626263 27.316136-1.25662 39.876196 8.16496 38.936801 23.551392 73.475432 46.157249 102.990653 14.44499-20.721951 24.809035-44.273343 30.773888-70.334905h-43.332924z" fill="" p-id="27695"></path><path d="M888.862183 64.4775h-752.058424v867.759563c1.597381 37.140898 34.516118 33.946137 58.136072 17.857717l317.89314-176.347381 318.178643 176.575578c30.807656 16.202007 58.763358 9.413394 57.850569-26.814716V64.4775zM239.383042 332.408739h225.450729v32.342616H239.383042v-32.342616z m254.337639 230.472092H210.181977V529.911952h283.538704v32.968879z m40.786939-173.323511c15.382339-27.005051 28.886911-56.833403 40.191374-89.48915l31.396058 12.56006c-15.072277 35.167964-30.454616 64.366983-46.15725 87.290065 10.6782-1.25662 21.352307-2.512217 32.342616-4.081968 5.65479-10.047844 11.93175-21.037129 18.21178-32.655747l28.575826 10.989285c-26.376741 45.530986-48.356334 79.128175-66.252937 100.793614 18.839067-3.768837 37.992289-8.480138 57.45762-14.444991v29.517268c-34.536584 10.360975-66.8792 17.268292-97.648994 20.72195l-8.480138-29.51522c5.650697-2.199085 10.674107-5.337565 14.756075-9.419534 9.42158-8.79327 21.35333-24.492834 35.483142-46.472428-14.44499 1.883907-29.828352 4.081968-45.530986 5.965875l-7.848758-29.828352c5.025457-1.882883 9.422603-5.964852 13.504572-11.930727z m258.730692 202.5256c-20.095687-13.503549-37.677111-28.575826-52.749387-44.899606-18.527982 18.839067-40.506553 33.910321-65.626674 45.526892l-18.212803-29.828352c24.492834-11.93175 45.215808-26.376741 61.859883-43.331901-14.129812-20.408819-25.435299-42.701544-33.914414-66.8792-10.047844 59.030441-29.513174 105.187691-58.087977 138.471748l-24.803919-21.668508c4.708232-5.650697 9.106402-11.615549 13.499456-17.896602-27.003004 10.363022-57.146535 18.84316-90.741677 25.12012l-4.397147-32.027437c37.366026-6.281053 70.019727-14.440897 98.280374-25.120121v27.003004c27.633361-45.212738 41.764196-109.269659 42.390459-192.790888V341.828272h-27.318182v-30.770817h143.495158v20.408819c-4.708232 25.433252-9.417487 47.413869-14.125719 66.252936h38.303375v18.212804c-6.907317 42.390459-20.406772 77.870532-40.50246 106.757443 15.69854 15.387455 33.284057 29.202089 53.379745 41.449017l-20.728091 27.944446z" fill="" p-id="27696"></path></svg>