<?xml version="1.0" standalone="no"?><!DOCTYPE svg PUBLIC "-//W3C//DTD SVG 1.1//EN" "http://www.w3.org/Graphics/SVG/1.1/DTD/svg11.dtd">
<svg t="1559468708069" class="icon" style="" viewBox="0 0 1024 1024" version="1.1" xmlns="http://www.w3.org/2000/svg" p-id="27477" 
xmlns:xlink="http://www.w3.org/1999/xlink" width="26" height="26"><defs><style type="text/css"></style></defs><path d="M725.098399 426.290943c5.339612-19.467377 11.304464-47.727001 18.211781-84.464717h-50.554396v11.933797c0 13.814634-0.626263 27.316136-1.25662 39.876196 8.163937 38.936801 23.551392 73.475432 46.157249 102.989629 14.44499-20.721951 24.808012-44.273343 30.773887-70.334905H725.098399z" fill="" p-id="27478"></path><path d="M888.857067 64.4775H136.803759v867.753423c1.597381 37.140898 34.516118 33.945113 58.136072 17.856694l317.891094-176.346358 318.176596 176.574555c30.807656 16.202007 58.763358 9.413394 57.850569-26.814716l-0.001023-859.023598zM494.660076 460.20331H209.239512v-32.655747h285.420564v32.655747z m39.845497-70.648036c15.382339-27.005051 28.885887-56.833403 40.191374-89.488128l31.396058 12.560061c-15.071254 35.166941-30.454616 64.366983-46.157249 87.290065 10.6782-1.25662 21.352307-2.512217 32.342615-4.081968 5.65479-10.047844 11.930727-21.037129 18.211781-32.655748l28.575825 10.989286c-26.376741 45.529963-48.355311 79.127152-66.252936 100.793613 18.838044-3.768837 37.992289-8.480138 57.457619-14.44499v29.517267c-34.536584 10.360975-66.8792 17.268292-97.648993 20.721951l-8.480139-29.515221c5.650697-2.199085 10.674107-5.337565 14.756075-9.419533 9.42158-8.79327 21.352307-24.492834 35.48212-46.472428-14.44499 1.883907-29.828352 4.081968-45.529963 5.965875l-7.848759-29.828352c5.024433-1.883907 9.422603-5.965875 13.504572-11.93175z m258.728646 202.524576c-20.095687-13.503549-37.677111-28.575826-52.748364-44.899606-18.527982 18.838044-40.506553 33.910321-65.62565 45.525869l-18.211781-29.828352c24.492834-11.930727 45.214784-26.376741 61.85886-43.331901-14.129812-20.408819-25.435299-42.700521-33.914414-66.8792-10.047844 59.029418-29.513174 105.186667-58.087976 138.470725l-24.803919-21.668509c4.708232-5.650697 9.106402-11.615549 13.499455-17.896602-27.003004 10.363022-57.146535 18.84316-90.741677 25.119097l-4.397147-32.026414c37.366026-6.281053 70.018703-14.440897 98.279351-25.119097v27.003004c27.633361-45.212738 41.763173-109.268636 42.390459-192.789865v-11.933796h-27.318182v-30.769795h143.494135v20.408819c-4.708232 25.432229-9.417487 47.413869-14.125719 66.251913h38.303374v18.211781c-6.907317 42.390459-20.406772 77.870532-40.502459 106.756419 15.69854 15.387455 33.284057 29.202089 53.379745 41.447994l-20.728091 27.947516z" fill="" p-id="27479"></path></svg>