<?xml version="1.0" standalone="no"?><!DOCTYPE svg PUBLIC "-//W3C//DTD SVG 1.1//EN" "http://www.w3.org/Graphics/SVG/1.1/DTD/svg11.dtd"><svg t="1559468740085" class="icon" style="" viewBox="0 0 1024 1024" version="1.1" xmlns="http://www.w3.org/2000/svg" p-id="28127" xmlns:xlink="http://www.w3.org/1999/xlink" width="26" height="26"><defs><style type="text/css"></style></defs><path d="M788 227.4H236c-39.6 0-71.9 32.4-71.9 71.9v85.2h695.8v-85.2c0-39.5-32.3-71.9-71.9-71.9zM164.1 724.7c0 39.6 32.4 71.9 71.9 71.9h552c39.6 0 71.9-32.4 71.9-71.9V422.2H164.1v302.5m75.5-92.2h218.8c10.3 0 18 8.4 18.4 18.4 0.4 9.9-8.8 18.4-18.4 18.4H239.6c-10.3 0-18-8.4-18.4-18.4-0.5-9.9 8.8-18.4 18.4-18.4z" p-id="28128"></path></svg>