<?xml version="1.0" standalone="no"?><!DOCTYPE svg PUBLIC "-//W3C//DTD SVG 1.1//EN" "http://www.w3.org/Graphics/SVG/1.1/DTD/svg11.dtd"><svg t="1559468689473" class="icon" style="" viewBox="0 0 1024 1024" version="1.1" xmlns="http://www.w3.org/2000/svg" p-id="27045" xmlns:xlink="http://www.w3.org/1999/xlink" width="26" height="26"><defs><style type="text/css"></style></defs><path d="M528.627191 708.345854c-23.486924 0-42.529629 19.042705-42.529629 42.529629S505.140267 793.403065 528.627191 793.403065c23.485901 0 42.529629-19.041682 42.529629-42.528606S552.113091 708.345854 528.627191 708.345854zM482.402403 436.164824c2.491751 2.492774 5.294586 4.154623 8.410554 4.984524l6.228865 2.180666 0-33.017998c-3.322675 0.623193-6.489808 1.454118-9.500375 2.492774-3.010567 1.037632-5.347798 2.948145-7.008624 5.752004-1.672082 2.802836-2.388397 5.564739-2.179642 8.264221C478.548632 430.55813 479.909629 433.674097 482.402403 436.164824zM554.355155 523.694343c1.660826-2.907213 2.492774-6.229888 2.492774-9.968026-0.207731-3.323699-1.14201-6.395664-2.803859-9.199523-1.660826-2.803859-3.529383-4.402263-5.606695-4.817726l-9.968026-2.803859 0 33.641191c2.908236-0.207731 5.866614-0.685615 8.878205-1.412163C550.346865 528.408715 552.694329 526.601556 554.355155 523.694343zM369.143896 676.448376l297.701263 0L666.845159 293.689902 369.143896 293.689902 369.143896 676.448376zM426.33341 416.687214c1.86958-9.863648 5.451152-18.066471 10.746762-24.608467 5.29561-6.540973 11.732206-11.835559 19.312858-15.884782 7.579629-4.050246 16.041348-6.687306 25.38618-7.93267l15.262612-2.180666 0-26.477025 41.427528 0 0 26.78811c6.230911 1.454118 12.189623 3.01159 17.910928 4.672416 5.711072 1.660826 11.410887 4.049223 17.132192 7.163143 5.711072 3.115967 11.525498 7.829316 17.443277 14.162558s9.292644 13.145391 10.124592 20.413935l2.179642 13.70514-53.575196 0c-0.415462-2.282996-0.986467-4.671393-1.714038-7.163143-0.73678-2.491751-2.335185-4.464685-4.827959-5.918803l-4.672416-2.803859 0 39.559994c9.968026 2.284019 19.158339 4.608971 27.566846 6.997368 8.410554 2.388397 15.990183 6.29231 22.738887 11.691273 6.738471 5.398964 11.888771 12.148691 15.419178 20.247136 3.529383 8.099469 5.13802 17.069771 4.827959 26.933419-0.312108 9.864672-2.918469 18.793018-7.78736 26.789133-4.880147 7.995091-10.95347 14.536065-18.223037 19.623943-7.267521 5.087878-15.054881 8.160867-23.360034 9.198499l-21.182438 3.427052 0 23.984251-41.427528 0 0-25.230638c-8.525164-1.660826-15.782451-3.385097-21.804608-5.149277-6.03239-1.766226-12.30321-4.672416-18.844184-8.721639s-12.459776-10.321066-17.755386-18.833951c-5.29561-8.513908-8.462742-16.302291-9.500375-23.362081l-2.491751-13.70514 53.265134 0c0.197498 3.113921 0.778736 6.64535 1.713015 10.590196 0.935302 3.945869 3.1569 6.748704 6.697539 8.410554l8.720615 5.294586 0-40.49325c-7.059789-1.245364-13.446243-2.449795-19.156292-3.592828-5.711072-1.14201-12.106736-2.802836-19.157315-4.984524-7.059789-2.179642-13.507642-6.166443-19.311835-11.980869-5.814426-5.815449-9.915837-13.248745-12.304234-22.281469S424.464853 426.550863 426.33341 416.687214zM512.67794 62.439074c-248.091378 0-449.209932 201.119577-449.209932 449.210955s201.118554 449.209932 449.209932 449.209932c248.092401 0 449.210955-201.118554 449.210955-449.209932S760.770342 62.439074 512.67794 62.439074zM709.374788 740.243331c0 46.971801-38.08541 85.057211-85.058235 85.057211l-212.643028 0c-46.983057 0-85.058235-38.08541-85.058235-85.057211L326.615291 293.689902c0-46.972824 38.075177-85.058235 85.058235-85.058235l212.643028 0c46.972824 0 85.058235 38.084387 85.058235 85.058235L709.374788 740.243331z" p-id="27046"></path></svg>