<?xml version="1.0" standalone="no"?><!DOCTYPE svg PUBLIC "-//W3C//DTD SVG 1.1//EN" "http://www.w3.org/Graphics/SVG/1.1/DTD/svg11.dtd"><svg t="1559468629593" class="icon" style="" viewBox="0 0 1024 1024" version="1.1" xmlns="http://www.w3.org/2000/svg" p-id="26396" xmlns:xlink="http://www.w3.org/1999/xlink" width="26" height="26"><defs><style type="text/css"></style></defs><path d="M505.856 546.816c-145.408 0-263.68-118.272-263.68-263.168C242.688 138.24 360.96 19.968 505.856 19.968s263.68 118.272 263.68 263.68c0 144.896-118.272 263.168-263.68 263.168z m0-470.016M514.56 621.056c-250.88 0-455.168 175.104-455.168 389.632h28.672c0-199.68 190.976-361.472 426.496-361.472s426.496 161.792 426.496 361.472h28.16c0.512-214.528-203.776-389.632-454.656-389.632z" p-id="26397"></path><path d="M912.896 1011.2h28.672c0-199.68-190.976-361.472-426.496-361.472s-426.496 161.792-426.496 361.472h28.672" p-id="26398"></path></svg>