<?xml version="1.0" standalone="no"?><!DOCTYPE svg PUBLIC "-//W3C//DTD SVG 1.1//EN" "http://www.w3.org/Graphics/SVG/1.1/DTD/svg11.dtd"><svg t="1559468753395" class="icon" style="" viewBox="0 0 1024 1024" version="1.1" xmlns="http://www.w3.org/2000/svg" p-id="28343" xmlns:xlink="http://www.w3.org/1999/xlink" width="26" height="26"><defs><style type="text/css"></style></defs><path d="M511.7 959.27c-276.955 0-393.1-100.046-393.1-305.649 0-170.33 131.717-348.077 291.391-404.145h203.4c159.696 56.068 291.412 233.816 291.412 404.145C904.798 859.225 788.65 959.27 511.7 959.27z m108.939-337.85v-0.066c18.381-0.095 33.247-15.174 33.247-33.748 0-18.599-14.866-33.665-33.247-33.786v-0.082h-67.437c0.15-0.75-0.086-1.429 0-2.187l79.018-81.59c12.901-14.661 6.332-26.782-6.696-40.082-13.116-13.373-34.532-16.175-45.13-4.521l-67.95 73.154-73.385-74.133c-9.299-9.376-27.386-6.313-40.374 6.815-13.031 13.158-16.015 31.411-6.76 40.787L467 547.776c-1.41 1.812-2.305 3.82-2.86 5.96h-60.996v0.066h-0.17c-18.488 0-33.46 15.118-33.46 33.79 0 18.65 14.972 33.793 33.46 33.793 0.042 0 0.107-0.03 0.17-0.03v0.066h66.885v33.654h-66.885v0.094h-0.17c-18.488 0-33.46 15.12-33.46 33.793 0 18.652 14.972 33.792 33.46 33.792 0.042 0 0.107-0.043 0.17-0.043v0.043h66.885v34.018h0.682c-0.514 2.634-0.834 5.394-0.834 8.208 0 23.334 18.728 42.239 41.823 42.239 23.097 0 41.823-18.906 41.823-42.24 0-2.812-0.32-5.572-0.832-8.207h0.384v-34.018l67.566-0.043c18.381-0.105 33.27-15.172 33.27-33.749 0-18.585-14.889-33.655-33.27-33.775v-0.112h-67.566v-33.658h67.565v0.002z m49.988-506.863l-7.036 8.876c-0.17 0.171-0.257 0.358-0.428 0.53l-59.46 75.06H402.97l-59.351-74.93c-0.449-0.428-0.746-0.948-1.132-1.42l-6.439-8.116 1.13-2.288c-0.532-2.08-1.258-4.107-1.258-6.358 0-10.759 6.695-19.845 16.08-23.542l0.768-1.6s82.235-16.613 150.571-16.89c71.486-0.299 150.546 16.89 150.546 16.89l0.811 1.617c9.32 3.732 15.973 12.798 15.973 23.526 0 2.207-0.726 4.172-1.239 6.204l1.196 2.441z m0 0" fill="" p-id="28344"></path></svg>