<?xml version="1.0" standalone="no"?><!DOCTYPE svg PUBLIC "-//W3C//DTD SVG 1.1//EN" "http://www.w3.org/Graphics/SVG/1.1/DTD/svg11.dtd"><svg t="1559632509708" class="icon" style="" viewBox="0 0 1024 1024" version="1.1" xmlns="http://www.w3.org/2000/svg" p-id="47148" xmlns:xlink="http://www.w3.org/1999/xlink" width="26" height="26"><defs><style type="text/css"></style></defs><path d="M512 0C226.304 0 0 226.304 0 512s226.304 512 512 512 512-226.304 512-512S797.696 0 512 0z m292.864 621.568H512c-21.504 0-36.864-14.336-36.864-36.864V219.136c0-21.504 14.336-36.864 36.864-36.864 21.504 0 36.864 14.336 36.864 36.864v328.704h256c21.504 0 36.864 14.336 36.864 36.864-1.024 22.528-15.36 36.864-36.864 36.864z m0 0" p-id="47149"></path></svg>