<?xml version="1.0" standalone="no"?><!DOCTYPE svg PUBLIC "-//W3C//DTD SVG 1.1//EN" "http://www.w3.org/Graphics/SVG/1.1/DTD/svg11.dtd"><svg t="1559632531865" class="icon" style="" viewBox="0 0 1024 1024" version="1.1" xmlns="http://www.w3.org/2000/svg" p-id="47364" xmlns:xlink="http://www.w3.org/1999/xlink" width="26" height="26"><defs><style type="text/css"></style></defs><path d="M611.6 514.8H417.9c-3.4 0-6.1 2.7-6.1 6.1s2.7 6.1 6.1 6.1h193.8c3.4 0 6.1-2.7 6.1-6.1 0.1-3.6-2.6-6.1-6.2-6.1z m0 60H417.9c-3.4 0-6.1 2.7-6.1 6.1 0 3.4 2.7 6.1 6.1 6.1h193.8c3.4 0 6.1-2.7 6.1-6.1 0.1-3.4-2.6-6.1-6.2-6.1z m0-120.6H417.9c-3.4 0-6.1 2.7-6.1 6.1 0 3.4 2.7 6.1 6.1 6.1h193.8c3.4 0 6.1-2.7 6.1-6.1 0.1-3.3-2.6-6.1-6.2-6.1z m0 0" p-id="47365"></path><path d="M515.1 135.5c-212.5 0-385 172.5-385 385s172.5 385 385 385 385-172.5 385-385c-0.1-212.5-172.6-385-385-385z m163.2 554.3c0 6.5-5.7 12.4-12.4 12.4H363.8c-6.5 0-12.4-5.7-12.4-12.4V351.6c0-6.5 5.7-12.4 12.4-12.4h63.1c8 0 13.9 8 10.7 16.6-1.1 3.2-1.5 6.5-1.1 10.3 1.1 12.4 12.6 21.5 25 21.5h106.2c12.6 0 24.2-9.3 25-21.5 0.4-3.4 0-7.4-1.1-10.3-2.7-7.8 2.7-16.6 10.7-16.6h63.1c6.5 0 12.4 5.7 12.4 12.4V690h0.2v-0.2z m0 0" p-id="47366"></path></svg>